<?xml version="1.0" standalone="no"?>
<!DOCTYPE svg PUBLIC "-//W3C//DTD SVG 20010904//EN"
 "http://www.w3.org/TR/2001/REC-SVG-20010904/DTD/svg10.dtd">
<svg version="1.0" xmlns="http://www.w3.org/2000/svg"
 width="626.000000pt" height="834.000000pt" viewBox="0 0 626.000000 834.000000"
 preserveAspectRatio="xMidYMid meet">

<g transform="translate(0.000000,834.000000) scale(0.100000,-0.100000)"
fill="#000000" stroke="none">
<path d="M100 8331 c0 -5 14 -21 32 -36 21 -18 38 -25 54 -21 16 4 28 -1 42
-19 11 -14 28 -25 37 -25 11 0 15 -5 12 -14 -4 -11 3 -13 29 -11 18 2 36 0 39
-4 2 -5 25 -16 50 -26 46 -17 46 -17 65 6 26 29 25 36 -8 53 -16 8 -54 35 -85
60 l-56 46 -105 0 c-58 0 -106 -4 -106 -9z"/>
<path d="M350 8336 c0 -10 115 -77 140 -82 25 -5 32 -2 49 27 35 57 32 59 -84
59 -58 0 -105 -2 -105 -4z"/>
<path d="M960 8321 c0 -12 8 -21 22 -23 24 -3 62 -63 54 -85 -3 -8 -2 -12 3
-8 11 6 20 -15 14 -31 -2 -7 -24 7 -49 31 -46 46 -122 73 -164 60 -20 -6 -20
-8 -4 -19 12 -9 13 -15 6 -20 -12 -7 -43 -72 -67 -137 -12 -32 -11 -40 3 -60
9 -13 19 -26 22 -29 8 -6 24 -43 22 -52 -3 -17 29 -15 38 3 13 24 87 79 107
79 11 0 11 -4 1 -19 -7 -11 -15 -18 -19 -15 -10 6 -49 -45 -49 -62 0 -21 17
-17 34 8 25 35 31 13 10 -39 -31 -83 -17 -213 24 -213 27 0 106 53 135 92 15
19 36 56 48 82 27 62 144 185 210 220 28 16 50 24 48 18 -2 -6 -22 -44 -44
-86 -49 -94 -47 -96 85 -95 52 0 106 -4 120 -9 19 -8 0 -11 -85 -11 -114 -1
-245 -26 -289 -55 -14 -9 -33 -43 -51 -93 -46 -130 -110 -208 -240 -296 -66
-44 -165 -79 -236 -85 -72 -5 -191 16 -269 47 -65 27 -103 34 -98 20 2 -6 33
-21 69 -33 63 -20 179 -97 179 -118 0 -6 -16 4 -35 21 -20 17 -40 31 -45 31
-15 0 -19 -31 -18 -125 1 -81 -2 -99 -36 -185 -50 -129 -66 -159 -103 -198
-18 -19 -33 -39 -33 -46 0 -7 -13 -31 -28 -52 -16 -21 -41 -60 -56 -86 -23
-39 -25 -48 -12 -48 9 0 16 -4 16 -10 0 -5 11 -12 24 -16 38 -9 116 34 132 72
18 42 2 104 -26 104 -32 0 -23 25 22 64 63 56 103 72 136 55 55 -27 62 -39 62
-100 0 -60 15 -89 48 -89 14 -1 14 -3 -3 -12 -22 -12 -45 -37 -45 -50 0 -11
38 -10 61 3 11 5 32 9 47 7 26 -3 25 -4 -25 -43 -29 -22 -55 -49 -58 -60 -4
-11 -10 -29 -15 -40 -5 -11 -16 -64 -25 -119 -18 -113 -31 -142 -76 -176 -57
-44 -91 -79 -85 -89 4 -5 2 -12 -3 -15 -5 -4 -12 3 -16 14 -3 11 -11 20 -16
20 -5 0 -3 13 6 29 11 23 13 51 9 128 -3 54 -10 102 -15 107 -9 10 -99 26 -99
17 0 -3 -12 -7 -26 -7 -18 -2 -24 2 -20 12 3 8 1 14 -5 14 -5 0 -12 -7 -15
-15 -4 -8 -12 -15 -18 -15 -7 0 -17 -5 -24 -12 -15 -15 -62 -20 -62 -6 0 6 -6
6 -15 -2 -8 -7 -15 -9 -15 -4 0 5 -9 -2 -20 -16 -19 -24 -19 -45 -20 -673 0
-577 2 -648 16 -643 13 5 13 3 -1 -16 -12 -18 -15 -57 -15 -206 l0 -183 49 58
c62 75 113 121 129 115 11 -3 17 12 12 33 -1 6 -3 55 -4 109 l-1 99 -35 13
-35 12 33 7 c18 4 35 12 38 16 9 14 34 10 34 -5 0 -8 8 -17 18 -21 9 -3 32
-26 51 -51 l33 -46 -7 -84 c-6 -73 -4 -88 13 -116 31 -52 11 -77 -28 -38 -27
27 -51 14 -86 -43 -46 -73 -97 -136 -106 -131 -5 3 -6 14 -3 25 4 11 2 19 -4
19 -6 0 -14 1 -18 2 -5 1 -25 5 -45 8 l-38 7 0 -38 c0 -39 13 -58 26 -38 13
21 34 -22 34 -68 0 -24 4 -43 10 -43 5 0 27 16 48 34 l38 35 18 -29 c17 -31
54 -47 81 -36 8 3 15 0 15 -7 0 -7 4 -19 10 -27 7 -12 12 -11 30 5 l21 19 -10
-27 c-6 -15 -26 -44 -45 -63 -28 -29 -38 -34 -61 -28 -20 5 -26 4 -21 -5 4 -6
2 -11 -4 -11 -6 0 -9 -4 -5 -9 3 -5 1 -12 -5 -16 -20 -12 -10 -35 15 -35 34 0
32 -25 -2 -47 -30 -19 -72 -63 -73 -75 0 -5 9 -8 21 -8 11 0 18 -4 15 -9 -3
-5 12 -30 33 -56 28 -34 40 -60 45 -95 8 -59 0 -83 -25 -75 -15 5 -19 1 -19
-15 0 -13 -4 -19 -11 -14 -8 4 -8 0 0 -15 9 -17 8 -24 -9 -41 -32 -32 -48 -26
-52 23 -2 34 -7 42 -23 42 -14 0 -20 -7 -20 -23 0 -12 -6 -27 -14 -31 -11 -7
-8 -16 16 -48 17 -21 36 -49 43 -63 7 -14 36 -48 64 -75 74 -73 103 -113 126
-173 23 -60 25 -103 9 -186 -14 -79 -58 -149 -65 -104 -1 10 3 16 9 15 7 -1
11 9 9 26 -2 15 0 27 5 27 5 0 10 15 11 32 2 33 -29 98 -47 98 -15 0 -71 -107
-71 -136 0 -23 2 -25 17 -13 15 13 16 11 9 -24 -6 -29 -3 -44 13 -66 12 -16
21 -37 21 -47 0 -16 -1 -16 -19 0 -21 19 -43 14 -35 -8 4 -11 45 -36 59 -36 3
0 5 7 5 15 0 9 6 12 15 9 19 -8 20 -80 1 -120 -8 -16 -17 -54 -21 -84 -15
-127 -18 -130 -82 -71 l-42 39 -53 -32 -53 -31 -3 -367 -2 -367 22 -24 c47
-48 82 -101 83 -122 1 -20 26 -55 36 -50 5 4 9 5 9 3 1 -2 3 -28 6 -59 l6 -56
-50 -43 c-65 -54 -79 -87 -62 -143 7 -23 14 -48 16 -56 3 -10 15 -12 44 -7 21
3 41 2 45 -3 3 -6 17 -4 32 4 32 17 37 12 47 -47 4 -21 12 -38 18 -38 7 0 7
-4 1 -12 -10 -12 -7 -67 3 -77 7 -7 44 31 38 40 -3 5 2 6 10 3 9 -3 30 3 48
14 18 12 46 25 61 31 46 18 21 -8 -29 -31 -33 -14 -43 -24 -41 -38 5 -33 15
-34 76 -6 44 20 65 24 82 17 16 -6 33 -5 49 4 14 6 48 22 75 35 82 39 97 51
85 65 -13 15 3 30 23 22 7 -3 30 10 51 27 36 31 38 35 40 102 2 38 -2 82 -7
97 -16 48 -3 38 28 -21 26 -49 30 -68 30 -133 0 -61 -4 -81 -19 -97 -18 -21
-18 -21 8 -28 14 -3 26 -13 26 -21 0 -12 -3 -12 -22 1 -52 37 -143 7 -250 -80
-78 -64 -63 -96 27 -58 20 8 39 13 42 10 3 -3 -5 -21 -17 -40 l-22 -36 51 0
c64 0 127 -25 135 -53 5 -20 6 -20 24 -4 38 34 45 23 39 -58 -3 -45 -2 -77 5
-81 5 -3 46 -6 91 -5 115 2 90 -8 -34 -14 -99 -4 -105 -5 -127 -32 -47 -57
-85 -93 -98 -93 -17 0 -27 17 -14 25 19 11 60 84 60 104 0 11 -10 32 -23 46
-17 20 -34 27 -79 32 -68 7 -69 5 -51 -117 18 -118 16 -147 -12 -214 -23 -57
-24 -60 -7 -90 9 -17 21 -34 25 -37 5 -4 8 -19 7 -35 -3 -44 -1 -48 16 -34 13
11 16 10 20 -7 6 -22 48 -38 128 -48 37 -5 57 -2 82 11 49 27 57 50 49 135 -7
70 -9 74 -54 117 -25 24 -55 51 -66 59 -20 14 -19 14 10 40 28 24 29 25 38 6
4 -10 17 -25 28 -32 18 -11 21 -9 26 8 7 27 15 26 41 -2 41 -44 45 -110 11
-224 -7 -23 -10 -45 -7 -49 8 -7 68 17 68 27 0 4 15 23 34 44 l34 37 4 -28 c2
-16 9 -30 16 -30 22 -3 23 -4 14 -21 -9 -16 -6 -29 31 -115 13 -31 37 -38 37
-10 0 14 2 15 10 2 17 -27 25 1 27 96 2 89 4 97 41 161 22 38 50 77 62 88 19
17 20 20 5 31 -13 10 -7 13 39 16 44 2 56 0 59 -13 3 -12 -1 -15 -18 -11 -31
6 -88 -47 -113 -105 -33 -77 -35 -127 -11 -238 31 -148 32 -160 19 -201 -10
-29 -10 -39 -1 -42 8 -3 4 -16 -10 -40 -32 -54 -36 -56 -54 -38 -22 21 -31 20
-31 -4 0 -11 4 -20 8 -20 5 0 21 -15 37 -32 l29 -33 22 20 c28 25 44 61 45 99
0 26 5 30 50 43 28 8 55 19 61 24 6 5 19 7 28 3 8 -3 30 -1 48 5 l32 11 -29
-30 -29 -31 18 -34 c11 -19 25 -35 33 -35 7 0 13 -7 13 -15 0 -8 8 -30 18 -49
l17 -36 537 0 c420 0 537 3 541 13 4 9 6 9 6 0 1 -7 10 -13 22 -13 12 0 19 5
16 13 -2 6 -10 11 -17 9 -7 -1 -9 4 -6 15 4 13 -10 34 -45 71 -41 41 -58 52
-83 52 -25 0 -36 7 -49 30 -10 17 -25 31 -33 31 -8 1 -17 3 -21 4 -5 1 -28 6
-53 10 -29 6 -53 18 -71 38 -26 28 -27 31 -12 53 15 24 33 32 33 15 0 -11 62
-41 84 -41 8 0 14 6 12 13 -3 6 -7 24 -10 39 l-6 26 31 -15 c25 -12 33 -13 39
-3 5 8 17 10 35 6 24 -6 26 -4 20 14 -6 19 -4 20 34 14 34 -6 41 -4 41 10 0
13 5 16 20 11 14 -4 27 2 45 21 14 15 25 31 25 35 0 5 7 6 15 3 23 -9 65 5 65
21 0 8 2 15 5 15 10 0 69 -32 110 -60 97 -67 202 -110 266 -110 18 0 51 19
101 60 84 70 149 97 265 113 145 19 262 -10 360 -90 l42 -34 15 28 c45 86 193
184 275 183 24 -1 23 -3 -13 -20 -22 -11 -43 -20 -47 -20 -4 0 -24 -10 -43
-22 -32 -21 -53 -51 -48 -70 1 -5 -3 -8 -9 -8 -6 0 -9 -8 -7 -18 3 -11 -4 -24
-19 -35 -20 -15 -23 -16 -23 -2 0 8 6 15 13 15 8 0 8 3 -2 9 -34 22 -57 -23
-26 -49 12 -10 20 -9 39 3 13 9 48 19 77 23 30 4 71 15 91 25 44 23 97 69 77
69 -8 0 -5 6 8 15 11 8 26 35 32 60 6 25 16 45 22 45 6 0 8 -8 4 -19 -3 -10 1
-24 10 -31 14 -12 22 -8 57 28 l40 42 25 -20 c14 -11 33 -20 42 -20 10 0 26
-7 37 -15 24 -18 49 -19 82 -1 15 8 42 20 59 26 33 13 36 30 4 30 -9 0 -26 7
-37 15 -18 14 -17 15 11 9 17 -3 42 -10 57 -16 33 -12 131 13 150 40 10 13 24
17 58 14 25 -2 65 -4 90 -6 98 -5 107 -7 86 -15 -14 -5 -16 -10 -8 -15 7 -4
12 -14 12 -22 0 -12 -13 -13 -78 -8 l-78 7 -27 -33 c-21 -25 -25 -35 -16 -46
8 -10 3 -16 -24 -27 -18 -8 -46 -27 -62 -43 -25 -25 -29 -26 -40 -11 -12 16
-14 16 -44 0 -31 -18 -41 -47 -18 -56 7 -4 6 -6 -4 -6 -17 -1 -79 -64 -79 -81
0 -16 15 -17 47 -4 17 7 34 23 38 34 10 32 40 41 159 47 112 6 113 6 177 -27
35 -17 69 -41 77 -51 7 -10 21 -19 30 -19 16 0 49 -55 44 -72 -4 -14 60 -68
81 -68 24 0 54 -38 40 -49 -12 -11 -87 -31 -114 -31 -12 0 -33 10 -45 21 -21
20 -22 23 -7 45 8 13 13 24 9 24 -13 0 -86 -78 -86 -92 0 -19 29 -45 55 -50
11 -2 24 -13 30 -26 6 -13 19 -22 32 -22 18 0 21 4 17 26 -3 18 -1 25 8 22 7
-3 14 -14 16 -26 3 -22 4 -22 273 -22 l270 0 -6 23 c-12 37 -62 113 -53 78 2
-5 0 -9 -4 -10 -22 -3 -29 0 -23 9 7 12 -22 2 -50 -17 -11 -7 -32 -13 -47 -13
-29 0 -27 -4 -41 119 -5 43 19 125 51 173 27 42 37 46 50 22 8 -15 12 -15 40
0 17 9 36 16 42 16 6 0 32 16 59 36 39 29 47 41 43 60 -6 35 -25 46 -57 34
l-27 -10 26 31 c14 17 26 34 27 37 0 4 2 41 5 82 7 129 30 210 86 302 93 151
133 251 163 405 5 26 2 34 -15 43 -29 15 -41 5 -30 -26 6 -15 6 -23 1 -19 -5
3 -17 25 -27 50 -13 35 -22 45 -39 45 -12 0 -29 8 -38 18 -20 23 -26 58 -9 54
8 -1 11 2 7 8 -3 5 -2 10 2 10 17 0 32 40 27 70 -4 16 -10 30 -14 30 -9 0 -32
-51 -25 -58 3 -3 5 1 5 8 0 7 2 11 5 8 8 -8 -6 -39 -15 -33 -4 3 -11 -7 -14
-22 l-7 -26 -17 24 c-14 19 -17 45 -16 129 0 58 6 116 12 130 8 20 9 14 5 -32
-4 -39 -2 -63 7 -73 18 -21 30 -9 30 29 0 19 11 49 24 69 27 39 43 103 42 165
-1 23 2 42 7 42 4 0 7 5 7 11 0 10 68 79 77 79 2 0 -7 -15 -20 -32 -21 -28
-25 -45 -26 -114 -2 -93 5 -130 25 -138 10 -4 16 6 20 34 4 22 13 45 20 51 11
9 15 5 20 -20 8 -41 25 -39 48 4 11 19 23 35 28 35 12 0 10 184 -3 197 -8 8
-8 13 0 17 6 4 11 29 11 57 0 44 -2 49 -22 49 -13 0 -30 5 -38 10 -13 8 -13
13 2 37 11 18 25 27 38 26 19 -3 20 2 20 157 0 137 -2 159 -15 154 -8 -4 -12
-11 -9 -16 4 -6 1 -14 -6 -18 -7 -4 -16 -25 -19 -45 -4 -27 -13 -40 -29 -46
-14 -5 -21 -5 -17 0 3 5 1 12 -5 16 -11 7 -11 4 -12 -67 0 -47 -10 -62 -21
-34 -3 8 -16 16 -29 18 -27 4 -37 47 -16 69 82 87 88 98 88 152 0 38 -10 72
-35 127 -19 41 -30 79 -26 83 5 5 25 -3 46 -17 43 -29 44 -30 79 -16 23 8 26
15 26 54 0 42 -1 44 -34 50 -25 5 -41 16 -57 42 -11 19 -19 38 -16 41 4 3 12
-6 18 -21 16 -34 25 -33 38 4 7 20 17 30 30 30 19 0 21 6 21 75 0 75 0 75 -27
77 -46 2 -66 -2 -83 -17 -25 -23 -40 -18 -40 14 0 20 8 34 25 45 33 22 94 30
111 15 12 -10 14 14 14 149 0 129 -3 162 -15 172 -11 9 -13 23 -9 50 4 25 2
40 -6 45 -10 6 -12 0 -6 -26 6 -34 6 -34 -29 16 -73 102 -79 124 -80 285 0
117 -3 147 -15 157 -13 10 -9 23 28 96 23 46 42 96 42 111 0 14 4 26 10 26 9
0 40 62 40 81 0 5 -6 9 -13 9 -8 0 -13 -10 -13 -21 1 -31 -20 -35 -28 -5 -3
14 -16 36 -29 48 -23 25 -76 52 -84 44 -8 -8 17 -74 30 -79 7 -2 9 -8 5 -12
-13 -13 -46 25 -74 83 -20 43 -25 66 -21 99 4 40 2 46 -29 69 -18 14 -38 23
-44 19 -5 -3 -1 9 10 28 28 48 62 62 92 38 17 -14 28 -17 46 -10 13 5 28 6 33
3 6 -3 21 -3 35 0 21 6 23 10 18 34 -4 15 -11 29 -16 30 -4 2 -8 11 -8 19 0
18 79 93 97 93 31 0 9 30 -34 46 -29 11 -69 40 -100 71 -46 46 -53 58 -53 92
0 28 5 43 18 50 16 10 16 10 0 11 -23 0 -22 7 3 82 21 64 41 87 73 88 15 0 17
-5 12 -34 -5 -24 -3 -37 7 -43 7 -4 16 -15 19 -24 13 -36 88 0 88 42 0 23 -7
29 -62 49 -35 13 -91 43 -126 67 -34 23 -74 46 -88 49 -21 5 -23 9 -12 23 11
14 11 14 -3 4 -19 -15 -47 -8 -140 34 -102 47 -167 124 -216 260 -25 71 -29
147 -9 203 l13 35 22 -42 c20 -40 23 -42 46 -31 45 20 28 63 -40 102 -25 15
-45 28 -45 30 0 2 11 3 25 2 14 0 25 -5 25 -9 0 -5 7 -2 15 7 21 21 18 46 -9
80 -23 28 -23 30 -7 48 10 10 24 31 32 46 7 15 24 41 36 58 21 29 22 36 13
105 -5 42 -14 88 -20 103 -5 15 -10 49 -10 76 0 27 -5 61 -12 77 -6 15 -11 31
-10 36 1 4 -5 7 -13 7 -8 0 -12 6 -9 15 10 24 -43 31 -69 9 -14 -12 -17 -13
-9 -3 17 23 6 29 -59 29 -32 0 -60 4 -63 9 -7 11 69 52 102 56 41 4 45 20 13
51 -20 18 -26 31 -19 35 14 9 48 -12 48 -29 0 -10 8 -12 30 -7 24 5 30 3 30
-10 0 -16 22 -45 34 -45 3 0 6 13 6 29 0 47 10 61 42 61 19 0 28 4 25 13 -2 6
-12 12 -23 12 -15 0 -19 7 -19 33 0 35 -22 44 -47 18 -21 -21 -50 -24 -80 -9
-16 7 -28 15 -28 17 0 3 20 28 45 57 25 29 45 56 45 61 0 4 6 5 14 2 11 -4 16
6 21 43 3 26 10 62 15 78 5 17 7 41 3 55 -6 24 -6 24 11 8 9 -10 26 -24 37
-32 18 -12 21 -26 22 -117 1 -59 -3 -113 -10 -124 -6 -11 -8 -35 -6 -52 4 -28
10 -33 32 -33 15 0 32 5 39 12 6 6 15 8 19 4 5 -4 -11 -24 -34 -44 -29 -25
-45 -48 -50 -71 -6 -34 -6 -34 28 -29 l34 5 -25 -16 c-66 -44 -66 -44 -40 -85
18 -30 28 -37 45 -33 21 3 24 -1 30 -39 3 -25 13 -48 23 -54 10 -5 12 -10 5
-10 -7 0 -13 -7 -13 -15 0 -8 -5 -15 -10 -15 -14 0 -2 -46 23 -87 19 -34 41
-43 50 -20 3 6 6 2 6 -9 1 -12 20 -41 44 -65 l42 -44 3 39 c3 31 -3 49 -27 83
-17 24 -31 54 -31 68 0 54 23 128 50 158 25 29 60 97 60 118 0 18 -17 8 -30
-16 -14 -26 -30 -33 -30 -14 0 6 18 28 41 49 22 20 40 43 39 51 -4 28 0 39 16
39 11 0 14 -5 10 -16 -6 -15 -4 -15 16 -2 18 12 22 23 20 51 -2 20 0 47 4 59
7 22 7 22 15 3 4 -11 8 -32 8 -47 1 -25 4 -27 31 -21 19 3 30 1 30 -6 0 -6 5
-11 10 -11 6 0 10 132 10 376 0 247 -3 373 -10 369 -5 -3 -10 -14 -10 -23 0
-10 -9 -25 -20 -35 -11 -9 -20 -26 -20 -37 0 -11 -4 -20 -10 -20 -17 0 -11
-22 12 -47 12 -13 17 -23 11 -23 -6 0 -16 -13 -22 -30 -9 -27 -31 -42 -31 -22
0 5 -18 33 -40 63 -47 62 -50 100 -10 109 14 3 26 13 28 22 2 12 -9 17 -52 22
-31 4 -61 4 -67 1 -6 -4 -9 -30 -7 -64 3 -48 1 -56 -14 -53 -36 6 -34 -51 2
-61 24 -6 26 -30 5 -47 -8 -7 -15 -18 -15 -24 0 -6 -10 -16 -22 -21 -13 -6
-27 -20 -33 -32 -16 -38 -30 -26 -27 21 4 42 3 44 -32 56 -20 6 -40 9 -45 6
-5 -3 -11 1 -15 9 -3 8 -15 15 -26 15 -12 0 -47 24 -81 56 -68 66 -73 65 -115
-22 -26 -53 -26 -55 -9 -74 18 -19 17 -20 -6 -20 -14 0 -50 9 -82 20 -59 21
-132 27 -141 11 -9 -14 -93 -51 -116 -51 -11 0 -20 4 -20 10 0 13 87 71 102
69 7 -1 29 1 48 5 25 5 44 3 65 -8 40 -21 111 -21 119 0 17 44 -4 134 -31 134
-7 0 -13 4 -13 10 0 12 -37 50 -48 50 -5 0 -19 12 -33 26 l-24 26 30 -13 c17
-8 47 -31 68 -51 38 -38 60 -47 72 -28 6 10 -140 160 -156 160 -10 0 -42 71
-35 78 4 3 26 -15 49 -40 25 -28 54 -49 71 -52 15 -3 39 -12 52 -21 30 -20 47
-19 73 3 20 16 20 18 4 51 -9 19 -25 36 -35 39 -20 5 -24 17 -8 27 6 3 10 15
10 26 0 10 5 19 11 19 6 0 9 6 6 14 -4 11 11 15 69 21 62 6 74 10 74 25 0 27
-101 126 -156 152 -40 19 -54 33 -76 78 -33 65 -34 67 -8 75 16 5 20 15 20 50
0 53 -5 55 -160 55 l-115 -1 24 -19 c13 -11 28 -20 35 -20 6 -1 25 -12 41 -26
28 -23 29 -26 12 -38 -9 -7 -17 -18 -17 -25 0 -6 -4 -11 -10 -11 -5 0 -10 -13
-10 -28 0 -21 7 -32 25 -40 29 -13 31 -24 10 -46 -17 -17 -40 -12 -49 10 -7
18 -35 18 -59 -1 -21 -16 -63 -5 -110 28 -29 20 -29 20 -55 0 -26 -20 -27 -24
-27 -115 0 -79 -2 -92 -12 -78 -19 28 -41 120 -49 209 -6 77 -8 81 -28 75 -42
-13 -43 -22 -16 -156 29 -141 13 -184 -31 -83 -23 51 -26 54 -54 49 -16 -3
-33 -8 -37 -12 -18 -18 -58 -139 -58 -174 0 -21 -4 -38 -10 -38 -5 0 -7 12 -5
28 3 15 9 60 14 101 5 40 14 78 20 84 7 7 5 19 -6 38 -16 26 -15 28 13 66 41
52 54 86 54 138 0 25 3 45 8 45 4 0 13 9 20 20 11 19 10 20 -32 20 -34 0 -46
-4 -49 -17 -4 -17 -5 -17 -6 0 -1 12 -10 17 -32 17 -52 0 -74 -37 -44 -76 19
-25 19 -44 -1 -44 -11 0 -15 -6 -11 -19 10 -39 -22 -9 -40 37 -9 25 -30 58
-47 74 -26 25 -36 28 -102 28 -41 0 -74 -2 -74 -5 0 -3 13 -26 29 -52 49 -81
73 -182 73 -308 0 -60 4 -120 9 -132 4 -12 4 -48 -2 -80 -31 -180 -31 -165 -4
-243 14 -41 29 -76 34 -79 4 -4 10 -46 13 -96 5 -87 5 -89 -10 -55 -8 19 -18
70 -23 113 -7 75 -31 133 -48 123 -4 -3 -14 -32 -21 -64 -11 -53 -10 -68 10
-147 21 -85 22 -98 4 -192 -6 -30 -4 -32 30 -39 61 -11 291 15 396 45 101 30
197 72 229 102 14 13 21 15 24 6 7 -20 -64 -92 -93 -92 -33 -1 -100 -24 -100
-36 0 -5 -9 -9 -21 -9 -19 0 -60 -30 -42 -30 29 -1 -35 -20 -83 -25 -84 -9
-194 -33 -210 -45 -11 -10 -7 -36 12 -68 1 -2 71 -6 155 -9 85 -3 158 -9 163
-13 12 -12 -99 -24 -147 -16 -74 13 -169 17 -181 8 -6 -5 -30 -15 -54 -22 -36
-11 -71 -33 -45 -29 27 5 53 -3 53 -16 0 -8 31 -30 70 -49 53 -27 87 -36 142
-41 52 -4 82 -12 103 -27 31 -23 145 -39 145 -21 0 15 47 33 84 33 21 0 47 11
72 30 42 32 74 39 74 16 0 -9 12 -16 28 -18 23 -3 17 -7 -37 -28 -73 -28 -83
-41 -46 -58 32 -15 32 -28 1 -34 -17 -3 -26 0 -29 11 -6 25 -54 25 -60 0 -3
-12 -12 -19 -19 -17 -19 7 -40 -19 -36 -44 2 -12 14 -28 28 -35 14 -7 27 -21
30 -33 l5 -20 42 21 c25 12 40 26 37 33 -4 10 8 13 46 12 l51 -1 -28 -22 c-15
-13 -35 -23 -44 -23 -19 0 -149 -59 -165 -75 -6 -6 -15 -21 -18 -33 -4 -12
-11 -20 -16 -17 -5 3 -11 -1 -14 -7 -3 -7 -3 17 0 53 5 58 3 67 -13 72 -10 3
-47 17 -83 30 -36 14 -81 27 -99 30 -38 6 -150 -10 -167 -24 -7 -6 -19 -3 -35
10 -32 25 -69 36 -69 21 0 -7 -6 -10 -14 -7 -8 3 -22 0 -32 -8 -10 -7 -24 -11
-30 -8 -9 3 -10 -5 -4 -33 6 -27 5 -47 -7 -73 l-15 -36 -16 35 c-10 19 -20 37
-24 38 -14 6 -8 24 5 19 18 -7 43 61 29 75 -5 5 -22 8 -38 6 -27 -3 -29 -5
-26 -45 4 -54 -11 -56 -37 -5 -23 46 -60 66 -97 52 -34 -13 -36 -13 -30 8 8
24 -20 56 -66 75 -32 13 -39 23 -53 69 -37 127 -32 209 19 266 18 20 36 45 39
55 6 15 23 22 53 18 16 -2 25 104 14 159 -13 62 -12 63 10 57 17 -4 32 5 36
23 8 39 33 51 54 25 10 -13 15 -13 21 -3 6 9 10 8 15 -6 5 -12 2 -21 -8 -27
-13 -7 -14 -17 -7 -50 11 -47 4 -63 -15 -36 -7 9 -16 17 -19 17 -3 0 -10 -30
-17 -67 -13 -76 -9 -82 49 -79 29 1 36 5 34 20 -1 13 2 15 10 7 21 -21 34 -11
47 34 12 44 12 62 -7 264 -3 36 0 94 6 130 14 80 14 86 -3 86 -7 0 -20 5 -27
12 -12 9 -69 7 -69 -3 0 -1 14 -18 30 -36 34 -37 37 -58 13 -99 -23 -39 -60
-40 -69 -1 -12 47 -34 82 -59 94 -14 6 -25 16 -25 23 0 6 -11 22 -25 35 l-25
23 0 -41 c0 -22 5 -44 10 -47 16 -10 12 -45 -5 -52 -9 -3 -22 2 -30 13 -14 18
-15 18 -21 -3 -13 -46 -59 -19 -68 39 -12 76 -26 108 -47 108 -11 0 -29 5 -39
10 -22 12 -183 15 -201 4 -18 -11 17 -33 44 -28 12 2 -7 -6 -43 -18 -77 -27
-130 -55 -130 -68 0 -6 -18 -28 -40 -50 -22 -22 -40 -44 -40 -50 0 -5 13 -24
28 -42 44 -52 77 -109 58 -102 -9 3 -16 10 -16 15 0 5 -26 -9 -59 -31 -32 -22
-62 -40 -66 -40 -4 0 -21 -15 -38 -32 l-30 -33 -9 30 c-20 64 -30 75 -65 75
-26 0 -48 -11 -89 -44 -40 -33 -79 -53 -150 -76 -135 -44 -177 -47 -262 -21
-38 11 -85 23 -103 25 -73 10 -215 75 -226 103 -13 32 11 48 73 48 49 0 67 5
104 30 53 36 77 35 120 -5 35 -33 37 -44 10 -67 -11 -10 -20 -21 -20 -25 0
-11 28 -10 32 1 2 5 21 12 43 15 22 4 54 10 70 15 47 14 138 20 160 11 11 -5
14 -9 8 -9 -7 -1 -13 -6 -13 -11 0 -6 15 -3 33 7 l32 18 -29 3 c-22 3 -26 6
-15 13 11 7 11 9 -3 9 -21 0 -22 9 -6 47 24 55 88 103 137 103 33 0 34 0 16
-20 -10 -11 -29 -20 -42 -20 -12 0 -23 -5 -23 -11 0 -6 7 -9 14 -6 10 4 13 1
9 -9 -3 -9 1 -14 12 -14 9 0 19 -9 22 -20 6 -22 14 -25 29 -11 13 14 65 1 71
-18 20 -56 67 -68 78 -18 19 88 -14 247 -49 234 -8 -3 -24 1 -35 10 -12 8 -31
13 -41 10 -12 -3 -20 2 -23 14 -6 24 -59 26 -81 4 -20 -21 -96 -22 -127 -2
-13 8 -41 18 -61 21 -32 6 -39 3 -54 -19 -9 -14 -25 -25 -35 -25 -10 0 -23 -9
-29 -20 -7 -14 -7 -20 0 -20 5 0 10 5 10 10 0 6 5 10 11 10 6 0 8 -9 3 -22 -9
-31 -7 -29 -60 -39 -44 -8 -50 -7 -76 17 -31 31 -30 39 10 47 20 4 33 15 42
36 7 19 20 31 31 31 27 0 31 15 9 40 -18 21 -24 34 -22 51 1 4 -10 19 -23 33
-17 18 -34 26 -58 26 -26 0 -39 6 -51 25 -16 25 -50 33 -61 15 -7 -12 -37 -1
-50 19 -5 9 -10 27 -10 41 0 19 -7 26 -35 33 -19 4 -49 12 -67 16 -26 7 -35 5
-52 -13 -12 -12 -21 -29 -21 -37 0 -8 -7 -25 -16 -37 -18 -26 -5 -52 26 -52
20 0 63 -52 74 -90 19 -65 23 -91 15 -95 -13 -9 -51 35 -54 63 -2 24 -64 92
-83 92 -17 0 -67 -103 -67 -138 0 -30 -4 -36 -29 -43 -15 -4 -65 -6 -111 -3
l-82 4 -17 -55 c-18 -57 -16 -100 2 -54 l10 26 82 -16 c44 -10 81 -21 81 -26
0 -4 -16 -14 -35 -20 -80 -28 -218 13 -245 72 -6 13 -15 23 -20 23 -4 0 -11
12 -14 28 -6 29 -81 112 -101 112 -7 0 -22 11 -34 25 -20 22 -21 28 -8 40 8 8
20 45 26 83 12 68 12 69 -19 128 -17 32 -31 62 -31 66 0 13 71 21 83 9 18 -18
22 -13 22 33 1 53 18 76 57 76 19 0 28 4 25 13 -3 9 -31 11 -106 8 l-101 -3
-6 31 c-5 23 -10 29 -18 22 -8 -7 -22 -5 -42 6 -16 9 -45 19 -64 22 -31 6 -35
10 -32 34 3 27 2 27 -60 27 l-63 0 37 -36 c62 -58 85 -95 112 -178 14 -44 24
-81 22 -84 -10 -9 -25 11 -42 56 -9 26 -26 56 -36 68 -10 11 -15 23 -12 27 4
4 0 9 -9 13 -11 4 -15 14 -11 32 4 22 0 29 -23 39 -15 7 -40 24 -55 38 -27 25
-30 25 -188 25 -88 0 -160 -3 -160 -7 2 -71 24 -150 55 -194 52 -76 44 -113
-35 -154 -35 -18 -50 -13 -43 13 10 38 -16 164 -46 227 -17 35 -35 75 -41 89
-8 23 -15 26 -55 26 -38 0 -45 -3 -45 -19z m546 -116 c2 -28 -11 -34 -20 -9
-9 24 -7 34 7 34 6 0 13 -11 13 -25z m3621 -177 c-3 -7 -5 -2 -5 12 0 14 2 19
5 13 2 -7 2 -19 0 -25z m493 -32 c0 -7 3 -29 7 -47 6 -31 5 -33 -9 -18 -17 16
-21 31 -19 62 1 20 21 24 21 3z m-465 -46 c3 -5 1 -10 -4 -10 -6 0 -11 5 -11
10 0 6 2 10 4 10 3 0 8 -4 11 -10z m15 -27 c0 -5 20 -39 45 -77 46 -72 50 -86
18 -67 -10 6 -14 11 -10 11 4 0 -2 10 -14 23 -17 18 -59 98 -59 113 0 2 5 4
10 4 6 0 10 -3 10 -7z m-3550 -23 c0 -5 -4 -10 -10 -10 -5 0 -10 5 -10 10 0 6
5 10 10 10 6 0 10 -4 10 -10z m-60 -150 c0 -5 -5 -10 -11 -10 -5 0 -7 5 -4 10
3 6 8 10 11 10 2 0 4 -4 4 -10z m3212 -55 c0 -26 -6 -52 -12 -59 -10 -8 -11
-2 -6 29 3 22 6 51 6 64 0 13 3 22 6 19 3 -4 6 -27 6 -53z m-2273 21 c9 -10 8
-15 -4 -20 -10 -4 -15 1 -15 14 0 24 4 25 19 6z m-1008 -69 c-13 -13 -26 -3
-16 12 3 6 11 8 17 5 6 -4 6 -10 -1 -17z m1851 -49 c-9 -9 -15 -9 -24 0 -9 9
-7 12 12 12 19 0 21 -3 12 -12z m-795 -14 c-3 -3 -12 -4 -19 -1 -8 3 -5 6 6 6
11 1 17 -2 13 -5z m893 -4 c0 -5 -11 -10 -24 -10 -14 0 -28 5 -31 10 -4 6 7
10 24 10 17 0 31 -4 31 -10z m-1466 -139 c22 -8 51 -27 64 -43 16 -19 31 -28
44 -25 21 6 22 -3 6 -72 -6 -28 -17 -51 -23 -51 -7 0 -40 28 -75 63 -65 65
-106 136 -95 165 6 15 8 15 23 -3 9 -12 35 -27 56 -34z m4076 29 c9 -17 8 -20
-10 -20 -13 0 -20 7 -20 20 0 11 4 20 10 20 5 0 14 -9 20 -20z m-3903 -76 c-3
-3 -12 -4 -19 -1 -8 3 -5 6 6 6 11 1 17 -2 13 -5z m4038 -40 c39 -51 -2 -74
-52 -28 -26 24 -27 27 -10 39 24 17 43 14 62 -11z m-1062 -1 c11 -10 -13 -32
-29 -26 -8 3 -14 -1 -14 -10 0 -9 -5 -19 -12 -23 -7 -4 -8 -3 -4 4 4 7 2 12
-3 12 -6 0 -11 9 -11 20 0 13 5 18 15 14 8 -4 15 -1 15 5 0 12 32 15 43 4z
m-3286 -79 c5 -15 -14 -37 -26 -30 -6 4 -16 16 -22 27 -9 18 -7 19 17 16 15
-2 29 -8 31 -13z m-1257 -9 c11 -13 10 -14 -4 -9 -9 3 -16 10 -16 15 0 13 6
11 20 -6z m4515 5 c3 -5 1 -10 -4 -10 -6 0 -11 5 -11 10 0 6 2 10 4 10 3 0 8
-4 11 -10z m152 -6 c-3 -3 -12 -4 -19 -1 -8 3 -5 6 6 6 11 1 17 -2 13 -5z
m-1221 -41 c-3 -8 -1 -11 4 -8 5 3 9 -4 9 -17 -1 -13 1 -30 5 -39 12 -29 -10
-30 -42 -2 -34 27 -38 43 -22 73 12 22 54 16 46 -7z m-2921 -43 c12 -20 -7 -9
-38 21 l-32 32 32 -22 c18 -12 35 -26 38 -31z m2460 20 c-11 -5 -40 -8 -65 -8
-41 0 -42 1 -15 8 17 4 46 8 65 8 28 1 31 -1 15 -8z m-2352 -78 c16 -18 20
-38 18 -87 l-1 -30 -20 30 c-11 17 -20 39 -19 50 0 16 3 14 15 -10 8 -16 12
-22 9 -12 -3 10 -5 25 -5 33 0 8 -7 14 -15 14 -8 0 -15 6 -15 14 0 7 -13 19
-30 26 -16 7 -30 16 -30 21 0 12 74 -27 93 -49z m-473 16 c0 -19 -2 -20 -10
-8 -13 19 -13 30 0 30 6 0 10 -10 10 -22z m3090 -19 c0 -5 -7 -9 -15 -9 -8 0
-15 7 -15 15 0 9 6 12 15 9 8 -4 15 -10 15 -15z m245 -9 c3 -6 -1 -7 -9 -4
-18 7 -21 14 -7 14 6 0 13 -4 16 -10z m-3325 -19 c0 -6 -4 -13 -10 -16 -5 -3
-10 1 -10 9 0 9 5 16 10 16 6 0 10 -4 10 -9z m5210 -51 c0 -11 -2 -20 -4 -20
-2 0 -6 9 -9 20 -3 11 -1 20 4 20 5 0 9 -9 9 -20z m-5260 -49 c0 -26 -23 -71
-37 -71 -7 0 -13 -5 -13 -11 0 -5 -4 -8 -9 -4 -5 3 -13 0 -17 -6 -4 -8 -9 -7
-15 2 -13 21 -11 32 7 25 8 -3 12 -2 9 4 -8 12 55 91 66 84 5 -3 9 -13 9 -23z
m5200 0 c0 -23 -16 -36 -25 -21 -9 14 1 40 15 40 5 0 10 -9 10 -19z m-4355
-19 c-3 -3 -11 0 -18 7 -9 10 -8 11 6 5 10 -3 15 -9 12 -12z m3925 8 c-8 -5
-19 -10 -25 -10 -5 0 -3 5 5 10 8 5 20 10 25 10 6 0 3 -5 -5 -10z m-3581 -42
c-12 -22 -29 -23 -29 -2 0 9 -5 12 -12 8 -6 -4 -9 -3 -5 2 3 5 16 9 30 9 21 0
23 -3 16 -17z m3638 -23 c2 -11 0 -14 -3 -7 -3 6 -12 12 -20 12 -8 0 -14 5
-14 11 0 19 35 4 37 -16z m-165 -20 c-4 -24 -32 -36 -32 -14 0 9 25 36 36 39
1 0 -1 -11 -4 -25z m550 -8 c7 -12 -20 -57 -34 -57 -6 0 -8 9 -5 20 3 11 1 20
-4 20 -4 0 -13 9 -19 20 -10 18 -8 19 22 13 18 -3 36 -11 40 -16z m-3662 -167
c0 -5 -5 -10 -11 -10 -5 0 -7 5 -4 10 3 6 8 10 11 10 2 0 4 -4 4 -10z m3310
-18 c0 -4 -30 -28 -67 -52 -38 -24 -77 -52 -87 -62 -24 -22 -36 -23 -36 -4 0
21 30 48 46 42 8 -3 42 15 77 39 69 49 67 48 67 37z m-4508 -15 c-13 -15 -107
-50 -122 -45 -26 8 19 38 70 47 30 5 57 9 59 10 2 0 -1 -5 -7 -12z m-292 -37
c-6 -11 -15 -20 -21 -20 -6 0 -6 7 1 20 6 11 15 20 21 20 6 0 6 -7 -1 -20z
m27 -22 c-3 -7 -5 -2 -5 12 0 14 2 19 5 13 2 -7 2 -19 0 -25z m1543 2 c9 13
11 13 20 0 5 -8 8 -20 5 -27 -2 -7 2 -10 11 -6 10 4 12 0 8 -11 -8 -20 -13
-20 -37 2 -11 9 -17 11 -13 4 7 -11 4 -12 -12 -3 -19 10 -35 45 -24 55 3 3 11
-2 18 -12 12 -15 15 -15 24 -2z m2880 -19 c0 -13 -29 -41 -43 -41 -6 0 0 11
13 24 29 29 30 29 30 17z m-4380 -89 c0 -75 -84 -254 -165 -352 -25 -30 -45
-61 -45 -67 0 -7 -7 -13 -15 -13 -8 0 -14 -5 -13 -12 4 -14 -96 -66 -142 -73
-19 -4 -51 -14 -70 -23 -19 -9 -39 -18 -45 -20 -5 -3 10 16 35 42 24 25 50 46
58 46 28 0 70 34 85 69 42 96 77 191 77 210 0 24 10 27 29 9 11 -11 12 -10 6
2 -8 13 -7 13 8 1 9 -7 17 -21 17 -31 0 -10 6 -23 14 -29 11 -9 18 -6 33 16
23 33 59 123 69 173 13 68 64 109 64 52z m1315 -90 c5 0 10 -5 12 -11 1 -7 0
-8 -4 -1 -2 5 -8 8 -12 5 -5 -2 -17 2 -27 11 -18 15 -18 15 1 6 11 -6 24 -10
30 -10z m3437 -104 c-11 -13 -24 -35 -27 -50 -4 -16 -11 -28 -16 -28 -5 0 -9
-7 -9 -16 0 -8 5 -12 10 -9 6 3 10 -1 10 -9 0 -8 6 -19 14 -23 8 -5 15 -31 18
-64 4 -49 2 -55 -14 -54 -10 1 -25 8 -32 16 -16 16 -36 74 -36 101 0 43 67
156 94 157 5 1 0 -9 -12 -21z m-832 -33 c0 -7 -51 -55 -58 -54 -4 0 -16 4 -27
8 -17 7 -13 10 23 20 23 7 42 16 42 21 0 6 5 10 10 10 6 0 10 -2 10 -5z m750
-195 c0 -5 -4 -10 -10 -10 -5 0 -10 5 -10 10 0 6 5 10 10 10 6 0 10 -4 10 -10z
m-5230 -19 c0 -5 -21 -28 -46 -50 -49 -43 -114 -68 -139 -53 -25 13 36 63 108
88 74 26 77 27 77 15z m477 -52 c-7 -83 -32 -107 -166 -160 -126 -50 -168 -78
-211 -141 -37 -53 -51 -128 -29 -154 10 -13 10 -17 -1 -24 -16 -10 -40 11 -40
35 0 9 -10 31 -22 48 -20 29 -20 31 -2 15 11 -10 23 -18 26 -18 3 0 11 19 17
43 6 24 20 56 31 70 12 15 18 27 15 27 -30 0 161 134 207 145 16 4 25 11 22
16 -3 5 1 9 10 9 8 0 16 4 18 8 2 4 20 19 42 32 25 15 45 38 58 67 10 23 22
43 25 43 3 0 3 -27 0 -61z m4753 36 c0 -8 -2 -15 -4 -15 -2 0 -6 7 -10 15 -3
8 -1 15 4 15 6 0 10 -7 10 -15z m-37 -43 c19 -21 12 -63 -9 -55 -8 3 -14 -1
-14 -8 0 -10 -4 -10 -15 2 -16 16 -11 49 7 49 6 0 5 6 -2 15 -19 23 12 20 33
-3z m-96 -264 c-3 -8 -6 -5 -6 6 -1 11 2 17 5 13 3 -3 4 -12 1 -19z m18 -23
c23 -5 59 -24 50 -25 -64 -12 -115 0 -115 26 0 13 6 15 28 9 15 -4 32 -8 37
-10z m-4965 -275 c12 -12 18 -25 15 -31 -12 -18 -144 -79 -150 -69 -3 6 -2 10
4 10 6 0 8 7 5 15 -8 21 -19 19 -48 -9 -27 -24 -33 -42 -16 -48 5 -1 -20 -10
-55 -19 -36 -9 -65 -15 -65 -13 0 2 19 16 42 30 64 40 82 62 68 79 -10 12 -8
15 11 17 13 0 30 1 37 1 6 -1 12 5 12 12 0 9 10 13 28 11 29 -3 72 12 72 26 0
14 19 9 40 -12z m5610 -180 c-8 -5 -22 -10 -30 -10 -13 0 -13 1 0 10 8 5 22
10 30 10 13 0 13 -1 0 -10z m-70 -185 c0 -31 -3 -35 -25 -35 -15 0 -25 6 -25
14 0 9 7 12 21 9 14 -4 20 -1 19 8 -3 21 -1 39 5 39 3 0 5 -16 5 -35z m-5880
1 c0 -2 -8 -10 -17 -17 -16 -13 -17 -12 -4 4 13 16 21 21 21 13z m5920 -132
c0 -2 -7 -4 -15 -4 -8 0 -15 4 -15 10 0 5 7 7 15 4 8 -4 15 -8 15 -10z m-594
-501 c-10 -10 -19 5 -10 18 6 11 8 11 12 0 2 -7 1 -15 -2 -18z m659 -1246 c16
-35 21 -53 13 -56 -21 -7 -58 48 -58 85 0 45 13 37 45 -29z m80 53 c-3 -5 -11
-10 -16 -10 -6 0 -7 5 -4 10 3 6 11 10 16 10 6 0 7 -4 4 -10z m45 -186 c0 -8
-4 -14 -10 -14 -5 0 -10 9 -10 21 0 11 5 17 10 14 6 -3 10 -13 10 -21z m-5720
-447 c25 -36 57 -77 72 -90 21 -19 27 -34 26 -60 -1 -37 18 -73 97 -186 46
-65 56 -113 36 -165 -10 -27 -17 -10 -19 49 -2 61 -25 110 -70 152 -21 20 -31
36 -27 44 5 7 4 10 -2 6 -10 -7 -56 76 -58 105 -2 23 -35 59 -47 52 -10 -7
-62 25 -54 33 2 3 -4 14 -15 26 -10 11 -20 29 -20 39 -1 10 -2 23 -3 29 0 5
-12 19 -26 31 -14 11 -18 18 -9 15 13 -4 15 -1 11 16 -5 21 -4 21 29 -4 19
-15 54 -56 79 -92z m5570 -471 c0 -5 -9 -1 -20 9 -11 10 -20 25 -20 34 0 12 6
9 20 -9 11 -14 20 -29 20 -34z m-5393 -88 c-3 -7 -5 -2 -5 12 0 14 2 19 5 13
2 -7 2 -19 0 -25z m5354 -121 c-10 -9 -11 -8 -5 6 3 10 9 15 12 12 3 -3 0 -11
-7 -18z m-5355 -185 c-2 -4 -1 -27 4 -51 4 -25 4 -54 0 -65 -8 -19 -9 -18 -9
6 -1 15 -6 30 -12 34 -8 4 -7 9 2 15 12 7 12 9 0 9 -10 0 -11 3 -2 14 8 10 9
16 1 21 -12 7 -4 25 11 25 6 0 8 -3 5 -8z m157 -113 c7 -27 -8 -24 -21 6 -9
19 -9 23 2 19 8 -3 16 -14 19 -25z m162 -69 c3 -5 1 -10 -4 -10 -6 0 -11 5
-11 10 0 6 2 10 4 10 3 0 8 -4 11 -10z m-435 -50 c-8 -6 -24 -9 -35 -9 l-20 1
20 5 c11 3 24 9 29 14 5 5 12 6 15 3 3 -3 -1 -9 -9 -14z m430 -213 c8 0 21 -8
28 -19 7 -10 24 -18 38 -18 37 0 29 -16 -13 -27 -51 -12 -76 -6 -70 17 2 10
-4 23 -14 31 -24 17 -25 34 -1 24 9 -4 24 -8 32 -8z m601 -247 c6 -33 16 -63
20 -66 5 -3 9 -13 9 -22 0 -14 -2 -15 -10 -2 -11 18 -18 11 -29 -28 -11 -37
-6 -43 25 -32 l24 10 0 -90 c0 -94 -1 -96 -47 -84 -18 5 -23 14 -23 39 0 47
-9 65 -39 78 -25 10 -25 11 -4 14 19 4 21 9 16 39 -4 26 -2 34 7 32 18 -4 28
34 29 110 1 34 3 62 5 62 3 0 10 -27 17 -60z m1269 -170 c0 -5 -5 -10 -11 -10
-5 0 -7 5 -4 10 3 6 8 10 11 10 2 0 4 -4 4 -10z m1785 -198 c45 -22 55 -30 42
-35 -12 -5 -16 -3 -11 5 5 8 2 9 -11 5 -11 -5 -22 -1 -31 10 -11 15 -15 16
-23 4 -8 -12 -12 -12 -26 2 -32 33 -83 6 -54 -29 9 -11 5 -13 -18 -13 -15 0
-40 -2 -55 -6 -51 -13 -25 39 37 73 34 19 87 13 150 -16z m85 -36 c0 -2 -7 -7
-16 -10 -8 -3 -12 -2 -9 4 6 10 25 14 25 6z m-2652 -116 c28 -7 53 -21 69 -40
14 -17 31 -30 39 -30 7 0 11 -6 8 -13 -2 -7 24 -30 66 -57 63 -41 83 -60 63
-60 -5 0 -30 11 -57 25 -28 14 -67 25 -89 25 l-39 0 6 -52 c3 -29 3 -45 0 -35
-3 9 -10 17 -16 17 -6 0 -8 10 -4 25 4 17 1 30 -12 43 -13 13 -16 25 -11 38
13 32 10 42 -11 49 -21 7 -70 54 -70 67 0 10 5 10 58 -2z m401 -80 c10 -6 11
-10 4 -10 -7 0 -12 -5 -10 -12 4 -22 -35 -20 -60 4 -20 18 -25 19 -20 6 8 -22
-11 -23 -37 -3 -11 8 -29 15 -40 15 -12 0 -28 5 -36 11 -19 14 175 3 199 -11z
m166 -39 l40 -19 -44 4 c-25 2 -49 10 -54 16 -5 8 -6 2 -2 -17 6 -29 6 -29 -9
-10 -8 11 -16 25 -16 32 0 6 -10 14 -22 16 -13 3 -3 3 22 1 25 -1 63 -12 85
-23z m-150 -11 c-28 -12 -37 -12 -30 0 3 6 16 10 28 9 21 0 21 -1 2 -9z m-550
-70 c-6 -18 -2 -20 39 -20 33 0 46 -4 46 -14 0 -8 10 -22 22 -30 14 -10 19
-19 13 -25 -16 -14 -138 -32 -145 -21 -6 10 -60 -35 -60 -50 0 -5 -18 -21 -39
-35 -28 -17 -41 -33 -43 -52 -2 -22 -6 -17 -14 25 -11 51 -10 54 17 92 16 22
29 44 29 48 0 19 109 102 133 102 5 0 5 -9 2 -20z m410 -70 c-3 -4 -15 -6 -27
-2 -21 5 -21 6 -2 12 21 8 37 3 29 -10z m-19 -64 c-5 -20 -13 -26 -34 -26 -32
0 -60 16 -49 27 5 4 12 1 16 -6 12 -19 64 16 56 38 -5 12 -3 13 6 4 7 -7 9
-22 5 -37z m68 -75 c3 -5 -10 -1 -29 8 -19 9 -34 22 -35 29 0 9 9 7 30 -8 16
-11 32 -25 34 -29z"/>
<path d="M1826 311 c-19 -21 -12 -28 13 -12 7 5 12 14 9 21 -2 7 -10 4 -22 -9z"/>
<path d="M1910 8336 c0 -11 87 -56 108 -56 12 0 22 -5 22 -11 0 -23 42 -49 69
-42 37 8 43 13 37 28 -6 17 57 27 91 14 19 -7 31 -6 47 5 20 12 28 11 75 -9
30 -12 48 -24 40 -27 -11 -4 -11 -8 3 -21 23 -23 48 -21 48 3 0 11 -6 20 -12
20 -7 1 -1 8 15 16 16 9 27 23 27 36 0 19 2 20 18 7 47 -40 67 -43 116 -18 42
21 50 22 83 10 20 -8 46 -22 57 -33 l21 -19 -27 -24 c-15 -12 -32 -25 -39 -27
-20 -7 9 -165 38 -211 28 -44 56 -57 121 -57 27 0 57 -7 70 -16 20 -14 22 -21
16 -60 -3 -24 -3 -52 1 -61 6 -17 7 -17 20 0 7 10 32 23 56 30 34 10 45 18 47
36 4 27 -11 40 -48 42 -21 1 -22 2 -5 6 11 3 23 10 27 16 12 19 -16 33 -82 43
l-65 9 0 35 c0 29 4 36 22 38 13 2 33 -4 45 -12 31 -22 60 -20 92 5 28 22 35
59 11 59 -8 0 -15 4 -15 9 0 17 -46 20 -98 7 l-52 -14 -15 31 c-8 16 -15 38
-15 47 0 20 40 40 79 40 16 0 47 7 70 15 45 15 103 55 81 55 -7 0 -10 8 -7 20
10 39 31 38 -673 31 -41 0 -175 2 -297 5 -123 3 -223 3 -223 0z"/>
<path d="M3380 8296 c17 -24 30 -52 30 -61 0 -24 37 -69 43 -53 3 8 6 5 7 -7
1 -11 3 -24 5 -30 1 -5 3 -14 3 -18 1 -5 9 -1 18 8 11 10 25 14 40 11 20 -5
24 0 40 46 11 34 32 66 60 94 24 23 44 45 44 48 0 3 -72 6 -160 6 l-159 0 29
-44z"/>
<path d="M3770 8335 c0 -20 32 -74 56 -94 21 -18 41 -25 74 -25 32 -1 50 -6
61 -20 24 -30 53 -6 83 69 14 36 26 67 26 70 0 3 -67 5 -150 5 -82 0 -150 -2
-150 -5z"/>
<path d="M4650 8330 c0 -19 31 -23 48 -6 15 15 14 16 -16 16 -18 0 -32 -5 -32
-10z"/>
<path d="M5804 8315 c5 -21 3 -25 -17 -25 -14 0 -36 -9 -50 -20 -14 -11 -30
-20 -35 -20 -5 0 -12 -12 -15 -27 -10 -54 48 -103 122 -103 22 0 52 -5 67 -10
21 -9 29 -7 41 7 14 17 14 17 9 1 -4 -12 0 -18 10 -18 10 0 14 6 11 14 -3 8 2
16 15 19 24 7 15 27 -13 27 -10 0 -19 3 -19 8 -1 4 -9 17 -20 30 -18 22 -21
22 -43 7 -30 -19 -43 -8 -20 18 12 13 18 36 18 68 0 49 0 49 -33 49 -31 0 -34
-2 -28 -25z"/>
<path d="M6206 8323 c-6 -16 28 -63 46 -63 4 0 8 18 8 40 0 36 -3 40 -24 40
-13 0 -27 -7 -30 -17z"/>
<path d="M5624 8309 c-3 -5 -14 -9 -25 -9 -15 0 -19 -7 -19 -32 0 -46 14 -66
28 -42 8 15 13 16 26 5 13 -11 17 -9 26 14 15 40 12 62 -10 68 -11 3 -23 1
-26 -4z"/>
<path d="M0 8134 l0 -142 43 -17 c23 -9 50 -23 59 -32 9 -8 21 -12 27 -9 5 4
12 2 16 -4 3 -5 38 -10 76 -10 85 0 95 14 50 66 -17 19 -28 40 -25 46 4 6 3 8
-4 4 -11 -7 -28 31 -18 42 4 3 21 0 39 -6 55 -20 66 -12 12 8 -27 11 -65 20
-83 20 -18 0 -31 4 -28 9 3 5 -7 11 -23 14 -16 4 -50 16 -76 28 -44 21 -46 24
-41 53 4 21 1 39 -9 51 -13 18 -14 5 -15 -121z"/>
<path d="M3688 8174 c-43 -51 -47 -76 -19 -101 11 -9 18 -20 15 -25 -3 -4 4
-8 15 -8 12 0 21 -5 21 -11 0 -6 -7 -8 -15 -5 -17 6 -40 -38 -31 -61 6 -15 36
-18 36 -3 0 5 13 7 30 4 31 -7 39 3 19 23 -8 8 -8 13 0 17 19 12 12 24 -11 19
-13 -3 -20 -2 -16 2 4 4 22 8 40 7 35 -1 118 43 118 63 0 7 -24 28 -52 46 -29
19 -63 44 -74 56 -12 13 -25 23 -30 22 -5 0 -26 -21 -46 -45z"/>
<path d="M485 8189 c3 -4 -3 -10 -13 -14 -14 -6 -12 -9 13 -21 17 -7 40 -13
51 -14 23 0 51 26 41 37 -10 9 -97 21 -92 12z"/>
<path d="M2556 8165 c-9 -14 -28 -30 -42 -35 -32 -13 -30 -26 6 -45 60 -31
111 -8 124 57 3 17 5 32 4 34 -2 1 -19 5 -39 9 -31 6 -38 3 -53 -20z"/>
<path d="M605 8139 c-4 -6 -5 -12 -2 -15 2 -3 7 2 10 11 7 17 1 20 -8 4z"/>
<path d="M6025 8131 c-9 -15 34 -50 62 -51 37 0 69 -20 87 -53 9 -18 32 -57
51 -87 l35 -55 0 76 c0 56 -4 80 -15 89 -8 7 -12 16 -9 21 10 17 -15 45 -50
56 -24 7 -36 8 -36 1 0 -6 -10 -8 -22 -5 -66 16 -96 18 -103 8z"/>
<path d="M577 8085 c-21 -20 -11 -47 17 -43 15 2 20 9 18 23 -5 31 -18 38 -35
20z"/>
<path d="M3262 8079 c2 -7 10 -15 17 -17 8 -3 12 1 9 9 -2 7 -10 15 -17 17 -8
3 -12 -1 -9 -9z"/>
<path d="M325 8050 c-4 -6 1 -7 11 -3 11 4 15 3 11 -4 -5 -7 1 -9 15 -5 21 5
21 6 2 13 -27 11 -32 10 -39 -1z"/>
<path d="M2500 8050 c20 -13 43 -13 35 0 -3 6 -16 10 -28 10 -18 0 -19 -2 -7
-10z"/>
<path d="M5875 8047 c-6 -7 -18 -25 -28 -40 -18 -28 -18 -29 7 -62 24 -31 78
-60 90 -48 10 11 7 40 -9 69 -8 16 -15 36 -15 44 -1 14 -23 50 -31 50 -2 -1
-9 -6 -14 -13z"/>
<path d="M5770 8030 c0 -19 3 -21 12 -12 9 9 9 15 0 24 -9 9 -12 7 -12 -12z"/>
<path d="M460 7946 c-25 -19 -54 -48 -64 -64 -11 -16 -25 -28 -32 -25 -7 2
-15 0 -19 -6 -3 -6 -15 -11 -25 -11 -48 0 -101 -56 -70 -75 5 -3 10 -17 10
-31 0 -17 8 -27 26 -34 25 -10 25 -30 -1 -30 -21 0 -24 -24 -5 -48 17 -21 22
-21 71 -11 52 11 99 39 66 39 -8 0 -25 9 -38 20 l-24 19 73 1 c58 0 76 4 91
19 19 19 49 105 70 199 9 41 8 44 -15 53 -59 22 -69 21 -114 -15z"/>
<path d="M0 7922 l0 -39 75 -32 c41 -17 76 -31 78 -31 1 0 3 9 4 20 1 11 -2
20 -7 20 -5 0 -25 14 -43 30 -19 17 -38 30 -42 30 -4 0 -20 9 -36 21 l-29 20
0 -39z"/>
<path d="M2130 7955 c0 -10 24 -55 29 -55 3 -1 25 -5 48 -9 41 -8 44 -7 62 22
11 17 18 34 16 37 -4 7 -155 12 -155 5z"/>
<path d="M3187 7942 c-16 -17 -16 -21 -2 -32 10 -8 15 -9 15 -1 0 6 11 13 25
17 14 4 24 11 22 18 -6 19 -42 18 -60 -2z"/>
<path d="M4419 7896 c-9 -19 -9 -30 -2 -37 8 -8 13 -2 18 21 4 17 4 34 1 37
-3 3 -11 -6 -17 -21z"/>
<path d="M5636 7881 c-3 -5 1 -14 9 -21 12 -10 15 -10 15 3 0 19 -16 31 -24
18z"/>
<path d="M6232 7860 c0 -14 2 -19 5 -12 2 6 2 18 0 25 -3 6 -5 1 -5 -13z"/>
<path d="M3175 7860 c-7 -12 19 -49 52 -74 32 -24 126 -14 121 13 -3 11 -12
15 -35 13 -24 -2 -33 2 -37 16 -4 11 -23 24 -45 30 -47 14 -48 15 -56 2z"/>
<path d="M3767 7848 c-31 -11 -55 -24 -52 -28 15 -24 136 -39 164 -21 19 12 6
41 -19 41 -11 0 -19 5 -17 11 4 19 -15 18 -76 -3z"/>
<path d="M198 7833 c7 -3 16 -2 19 1 4 3 -2 6 -13 5 -11 0 -14 -3 -6 -6z"/>
<path d="M737 7833 c-4 -3 -7 -24 -7 -45 0 -22 -7 -53 -16 -71 -16 -30 -16
-32 7 -47 13 -8 38 -27 55 -42 37 -32 64 -35 87 -10 15 16 16 29 7 96 -5 43
-13 82 -16 88 -15 24 -101 47 -117 31z"/>
<path d="M6080 7786 c0 -8 -9 -17 -19 -21 -22 -7 -29 -28 -23 -63 6 -33 32
-40 53 -14 9 12 24 22 33 22 28 0 26 18 -9 54 -21 23 -35 32 -35 22z"/>
<path d="M2146 7777 c-53 -39 62 -139 129 -113 14 5 14 8 0 36 -8 16 -15 32
-15 35 0 3 -10 16 -22 30 -24 28 -64 33 -92 12z"/>
<path d="M3760 7706 c0 -2 7 -6 15 -10 8 -3 15 -1 15 4 0 6 -7 10 -15 10 -8 0
-15 -2 -15 -4z"/>
<path d="M4097 7703 c-12 -12 -7 -51 7 -56 19 -8 26 1 26 35 0 26 -17 37 -33
21z"/>
<path d="M2060 7655 c0 -6 69 -35 84 -35 6 0 -4 9 -22 20 -30 19 -62 26 -62
15z"/>
<path d="M596 7624 c-10 -27 -7 -52 10 -68 14 -15 13 -16 -13 -16 -16 0 -38 7
-49 15 -10 8 -37 15 -58 15 -22 0 -66 5 -97 12 -44 9 -64 9 -83 0 -51 -23 -25
-56 67 -87 46 -16 50 -15 70 2 18 16 20 16 14 1 -15 -43 81 -50 115 -8 9 11
23 20 32 20 69 0 184 65 159 90 -10 10 -117 39 -149 40 -7 0 -15 -7 -18 -16z"/>
<path d="M708 7509 c-28 -16 -21 -29 15 -29 31 0 57 14 57 32 0 11 -52 9 -72
-3z"/>
<path d="M5730 7511 c0 -3 16 -14 36 -24 33 -16 35 -16 32 0 -3 16 -68 39 -68
24z"/>
<path d="M271 7396 c-9 -11 -9 -15 0 -18 9 -3 9 -9 -1 -24 -19 -30 -5 -72 25
-80 14 -3 25 -11 25 -18 0 -6 11 -16 25 -23 22 -10 27 -8 45 14 11 14 20 33
21 42 0 9 2 26 5 39 2 12 -1 22 -7 22 -5 0 -7 5 -4 10 3 6 -1 10 -9 10 -9 0
-16 5 -16 11 0 6 -7 8 -16 5 -10 -4 -13 -2 -8 6 5 7 0 9 -14 6 -12 -4 -20 -2
-16 3 9 15 -43 10 -55 -5z"/>
<path d="M3120 7340 c0 -5 5 -10 10 -10 6 0 10 5 10 10 0 6 -4 10 -10 10 -5 0
-10 -4 -10 -10z"/>
<path d="M3108 7268 c-97 -33 -117 -55 -40 -44 26 4 58 8 71 8 14 0 19 3 13 7
-7 4 2 12 22 19 33 12 58 43 33 41 -7 -1 -51 -14 -99 -31z"/>
<path d="M298 7124 c-32 -17 -48 -43 -48 -77 0 -20 -4 -23 -25 -20 -20 4 -27
0 -36 -23 -36 -89 -69 -149 -127 -236 -82 -122 -77 -152 7 -38 34 47 85 113
114 148 28 34 59 75 67 90 8 15 30 51 48 80 19 28 32 60 30 71 -3 18 -5 18
-30 5z"/>
<path d="M4384 7042 c-33 -5 -47 -42 -37 -92 4 -24 13 -45 20 -47 11 -4 47 62
58 108 7 29 -5 37 -41 31z"/>
<path d="M6157 6835 c-4 -8 -16 -15 -27 -15 -26 0 -26 -27 0 -60 19 -23 21
-24 31 -7 17 29 29 19 25 -23 -4 -47 11 -64 48 -54 24 6 26 10 26 68 0 52 -3
63 -22 75 -19 12 -23 11 -34 -4 -11 -15 -13 -15 -16 6 -4 27 -23 36 -31 14z"/>
<path d="M4385 6730 c-3 -6 1 -13 10 -16 19 -8 30 0 20 15 -8 14 -22 14 -30 1z"/>
<path d="M5759 6491 c7 -12 9 -27 5 -34 -5 -9 -4 -9 5 -1 16 14 11 46 -7 52
-11 3 -12 0 -3 -17z"/>
<path d="M6232 6447 c-17 -21 -53 -119 -50 -138 3 -16 6 -16 41 -2 l37 15 0
69 c0 68 -7 82 -28 56z"/>
<path d="M6091 6297 c-10 -12 -18 -14 -31 -7 -29 15 -32 12 -16 -19 8 -15 16
-47 17 -70 2 -29 7 -40 16 -37 7 3 13 1 13 -4 0 -6 12 -10 26 -10 22 0 25 -2
14 -15 -7 -8 -24 -15 -39 -15 -31 0 -45 -9 -54 -33 -4 -10 -20 -25 -37 -35
-35 -20 -38 -37 -9 -52 31 -17 63 -9 67 18 4 27 10 27 42 2 32 -25 50 -25 105
1 77 36 71 82 -21 174 -24 25 -44 49 -44 55 0 5 -6 10 -14 10 -8 0 -16 12 -18
27 -3 24 -4 25 -17 10z"/>
<path d="M6217 5953 c-20 -10 -27 -21 -25 -36 7 -48 68 -23 68 27 0 29 -3 30
-43 9z"/>
<path d="M5743 5903 c-17 -6 -16 -38 1 -52 10 -9 15 -8 20 4 8 21 -6 53 -21
48z"/>
<path d="M5655 5872 c-9 -10 -5 -23 5 -17 6 3 10 1 10 -5 0 -6 5 -8 10 -5 15
9 12 32 -5 32 -8 0 -17 -3 -20 -5z"/>
<path d="M5905 5740 c-11 -18 15 -39 64 -54 25 -8 38 -15 29 -15 -12 -1 -15
-6 -11 -18 13 -35 102 -161 118 -167 27 -10 102 -7 130 6 22 10 25 17 25 67
l0 56 -49 33 c-28 17 -61 32 -74 32 -14 0 -27 7 -31 15 -3 9 -19 15 -38 15
-37 1 -123 22 -134 33 -10 10 -22 9 -29 -3z"/>
<path d="M5858 5624 c-3 -3 -3 -14 0 -26 4 -16 10 -19 36 -14 l31 5 -28 -15
-29 -16 23 -24 c35 -37 56 -32 53 14 -3 65 -13 82 -48 82 -18 0 -35 -3 -38 -6z"/>
<path d="M6231 5101 c-11 -7 -10 -13 8 -32 l21 -23 0 32 c0 33 -6 38 -29 23z"/>
<path d="M6233 4845 c1 -21 8 -40 15 -43 16 -5 15 19 -3 54 l-14 28 2 -39z"/>
<path d="M83 4304 l-28 -25 30 6 c28 6 44 20 45 38 0 14 -19 7 -47 -19z"/>
<path d="M128 4259 c-10 -5 -18 -7 -18 -4 0 3 -10 0 -22 -6 -22 -12 -22 -13
12 -24 39 -14 60 -5 60 26 0 21 -7 23 -32 8z"/>
<path d="M41 4011 c-23 -15 -21 -39 4 -45 13 -3 30 -9 39 -12 24 -9 21 43 -3
56 -23 12 -22 12 -40 1z"/>
<path d="M6167 3998 c-24 -18 -37 -70 -25 -94 6 -10 27 -44 47 -74 20 -30 44
-71 53 -90 16 -34 16 -33 17 111 1 125 -1 148 -15 153 -25 10 -59 7 -77 -6z"/>
<path d="M6140 3832 c0 -17 29 -80 40 -87 14 -9 13 10 -4 49 -14 33 -36 56
-36 38z"/>
<path d="M7 3709 c7 -7 15 -10 18 -7 3 3 -2 9 -12 12 -14 6 -15 5 -6 -5z"/>
<path d="M0 3578 c0 -96 3 -108 32 -124 9 -5 37 -28 62 -52 26 -24 52 -41 59
-39 9 4 9 6 0 6 -7 1 -13 8 -13 17 0 9 -9 28 -19 42 -10 15 -19 32 -19 37 -2
32 -24 139 -34 159 -6 14 -18 27 -27 30 -9 3 -22 9 -28 12 -10 4 -13 -17 -13
-88z"/>
<path d="M170 3552 c0 -13 -4 -21 -9 -18 -21 14 -23 -64 -2 -103 11 -20 15
-21 27 -9 8 7 17 34 20 58 5 37 2 50 -15 70 l-20 25 -1 -23z"/>
<path d="M6245 2700 c-3 -5 -1 -18 4 -27 9 -16 10 -14 11 10 0 28 -5 34 -15
17z"/>
<path d="M6040 1670 c0 -5 5 -10 11 -10 5 0 7 5 4 10 -3 6 -8 10 -11 10 -2 0
-4 -4 -4 -10z"/>
<path d="M0 1410 c0 -28 1 -29 25 -18 30 13 32 24 6 38 -28 15 -31 13 -31 -20z"/>
<path d="M81 1371 c-18 -12 -24 -43 -9 -52 6 -4 -8 -10 -31 -14 l-41 -7 0 -79
c0 -55 4 -79 12 -79 9 0 9 -3 0 -12 -7 -7 -12 -31 -12 -55 l0 -42 52 2 c48 2
52 0 58 -23 8 -34 41 -33 58 2 9 19 10 33 3 46 -6 12 -6 39 0 78 22 127 22
161 1 182 -13 13 -19 28 -15 41 5 18 1 21 -28 21 -19 0 -40 -4 -48 -9z"/>
<path d="M6150 1058 c-34 -53 -38 -66 -26 -78 8 -8 7 -10 -6 -5 -19 7 -20 6
-59 -100 l-19 -50 31 35 c31 36 109 183 109 207 0 20 -13 16 -30 -9z"/>
<path d="M35 942 c-28 -15 -31 -23 -34 -70 l-2 -52 66 24 c86 31 93 38 74 73
-24 48 -51 55 -104 25z"/>
<path d="M537 804 c-12 -13 -7 -51 8 -64 12 -10 16 -9 21 3 13 35 -9 81 -29
61z"/>
<path d="M6168 803 c-14 -4 -15 -9 -7 -30 14 -37 68 -103 85 -103 18 0 20 103
2 117 -17 13 -58 21 -80 16z"/>
<path d="M6077 681 c-12 -99 23 -142 62 -76 27 47 27 70 -4 100 -37 38 -51 32
-58 -24z"/>
<path d="M320 695 c0 -5 5 -17 10 -25 5 -8 10 -10 10 -5 0 6 -5 17 -10 25 -5
8 -10 11 -10 5z"/>
<path d="M308 569 c-10 -5 -18 -14 -18 -19 0 -14 28 -1 34 16 6 16 6 16 -16 3z"/>
<path d="M256 378 c-38 -76 -77 -148 -88 -160 -10 -12 -28 -37 -40 -56 -20
-32 -20 -35 -4 -44 16 -9 16 -11 -2 -26 -45 -40 -55 -92 -19 -92 19 0 28 10
42 43 11 23 27 53 36 67 9 14 25 50 34 80 9 30 39 108 66 173 28 65 49 126 47
135 -2 10 -34 -43 -72 -120z"/>
<path d="M3700 421 c0 -16 15 -20 40 -14 22 6 23 7 4 14 -27 11 -44 11 -44 0z"/>
<path d="M2858 397 c-43 -25 -52 -53 -15 -43 18 4 31 -2 53 -25 24 -25 27 -33
16 -49 -14 -23 -7 -47 16 -53 11 -3 7 -5 -8 -6 -14 0 -31 -11 -39 -23 -13 -20
-11 -24 20 -50 18 -15 49 -33 68 -39 20 -6 45 -20 57 -30 11 -11 24 -16 28
-12 4 4 4 0 0 -10 -5 -13 -2 -16 10 -11 12 5 16 21 16 73 0 92 14 111 85 111
52 0 79 -12 51 -23 -21 -8 -76 -126 -76 -164 0 -37 22 -42 29 -7 4 22 29 43
52 44 19 0 29 -20 29 -56 0 -24 0 -24 115 -24 l114 0 -6 52 c-3 29 -7 54 -8
55 -1 2 -27 -2 -58 -8 -62 -13 -106 -6 -74 12 9 6 21 7 27 4 12 -7 70 22 70
35 0 13 -16 13 -41 0 -10 -6 -19 -7 -19 -2 0 12 44 52 58 52 7 0 12 7 12 16 0
9 14 39 30 66 41 67 31 88 -44 88 -40 0 -67 -8 -112 -31 -144 -77 -173 -89
-237 -102 -78 -16 -119 -16 -124 0 -2 6 5 13 16 16 26 6 49 44 53 86 3 30 -2
38 -31 58 -42 29 -85 29 -133 0z"/>
<path d="M3638 413 c7 -3 16 -2 19 1 4 3 -2 6 -13 5 -11 0 -14 -3 -6 -6z"/>
<path d="M5040 390 c0 -5 10 -10 23 -10 18 0 19 2 7 10 -19 13 -30 13 -30 0z"/>
<path d="M421 312 c-17 -38 -31 -73 -31 -79 0 -5 -9 -18 -20 -28 -11 -10 -27
-41 -35 -69 -8 -28 -29 -67 -45 -88 -17 -20 -30 -39 -30 -42 0 -3 25 -6 55 -6
l55 0 0 50 c0 56 18 150 31 164 6 6 9 6 9 0 0 -5 4 -15 9 -23 7 -11 17 -8 53
19 23 19 44 34 45 34 1 1 4 13 8 28 6 23 3 29 -16 37 -16 5 -27 5 -32 -3 -6
-7 -7 -5 -3 6 5 17 -9 35 -17 21 -5 -10 1 12 9 32 3 8 2 15 -3 15 -6 0 -24
-31 -42 -68z"/>
<path d="M3584 372 c-7 -4 -24 -36 -39 -71 -23 -56 -25 -67 -14 -93 14 -35 50
-61 72 -53 8 4 20 18 26 33 12 28 79 82 102 82 7 0 21 -7 31 -17 17 -15 19
-15 38 2 11 10 20 31 20 48 0 23 3 27 13 18 8 -6 17 -8 20 -5 3 3 12 -9 20
-28 15 -35 42 -68 57 -68 10 0 36 108 27 116 -13 13 -78 15 -93 3 -12 -9 -17
-10 -23 -1 -4 6 -49 16 -101 22 -52 5 -106 12 -120 15 -14 3 -30 2 -36 -3z"/>
<path d="M6010 354 c0 -9 -5 -12 -12 -8 -6 4 -8 3 -5 -3 11 -18 25 -93 16 -87
-5 3 -9 -1 -9 -10 0 -8 -6 -17 -12 -19 -9 -4 -5 -12 12 -26 14 -11 26 -18 28
-16 3 2 10 37 17 77 12 67 11 74 -6 91 -22 21 -29 22 -29 1z"/>
<path d="M4165 330 c-8 -16 -15 -35 -15 -42 0 -7 -7 -26 -15 -41 -14 -27 -13
-30 22 -75 l36 -47 -6 40 c-4 22 0 70 8 109 8 38 12 73 9 77 -10 16 -23 9 -39
-21z"/>
<path d="M3050 330 c0 -23 8 -25 33 -6 16 12 16 14 1 20 -26 10 -34 7 -34 -14z"/>
<path d="M2543 315 c8 -17 13 -20 15 -10 2 8 15 15 30 16 l27 1 -25 8 c-50 16
-59 13 -47 -15z"/>
<path d="M4073 329 c-28 -10 -28 -17 -3 -49 17 -22 21 -23 34 -10 8 8 17 26
21 40 7 29 -11 35 -52 19z"/>
<path d="M4424 285 c-8 -33 1 -56 27 -62 14 -4 18 -10 13 -22 -10 -22 -11
-101 -1 -101 4 0 7 -7 7 -15 0 -8 3 -16 8 -16 67 -10 74 -9 106 25 17 19 42
48 55 66 14 18 29 29 37 26 12 -4 12 -1 4 14 -6 11 -7 38 -4 62 7 39 6 42 -9
29 -10 -7 -17 -21 -18 -30 0 -9 -3 -11 -5 -5 -6 15 -75 -4 -73 -20 3 -24 -1
-46 -8 -46 -5 0 -15 15 -23 33 -9 20 -24 33 -38 35 -12 2 -30 14 -38 28 -21
31 -32 30 -40 -1z"/>
<path d="M2820 280 c0 -6 7 -10 15 -10 8 0 15 2 15 4 0 2 -7 6 -15 10 -8 3
-15 1 -15 -4z"/>
<path d="M6125 250 c-3 -5 -1 -10 4 -10 6 0 11 5 11 10 0 6 -2 10 -4 10 -3 0
-8 -4 -11 -10z"/>
<path d="M913 224 c-10 -14 -48 -58 -85 -98 -49 -52 -68 -79 -68 -98 0 -24 4
-28 26 -28 15 0 35 10 45 22 l19 21 0 -21 c0 -19 6 -22 40 -22 36 0 41 4 66
45 30 52 36 82 14 77 -44 -10 -105 -20 -107 -18 -7 7 23 66 34 66 13 0 73 60
73 73 0 18 -41 5 -57 -19z"/>
<path d="M1170 234 c0 -8 5 -12 10 -9 6 3 10 10 10 16 0 5 -4 9 -10 9 -5 0
-10 -7 -10 -16z"/>
<path d="M4680 240 c0 -5 5 -10 10 -10 6 0 10 5 10 10 0 6 -4 10 -10 10 -5 0
-10 -4 -10 -10z"/>
<path d="M5064 238 c-3 -4 -7 -21 -9 -38 -3 -26 1 -34 28 -50 42 -26 56 -12
54 50 l-2 50 -33 -3 c-19 -1 -36 -5 -38 -9z"/>
<path d="M6251 230 c-5 -10 -29 -125 -26 -128 1 -1 10 9 19 23 11 17 16 40 13
68 -2 23 -5 40 -6 37z"/>
<path d="M3835 156 c-28 -13 -63 -38 -80 -56 l-30 -32 40 8 c22 4 43 11 46 16
3 5 30 10 60 12 42 1 55 6 57 19 2 11 -3 17 -15 17 -17 1 -17 1 0 11 9 5 17
13 17 17 0 16 -48 10 -95 -12z"/>
<path d="M4714 161 c0 -9 3 -18 6 -21 3 -3 10 -14 16 -25 24 -44 134 -18 134
32 0 20 -5 23 -37 25 -115 6 -120 6 -119 -11z"/>
<path d="M1400 131 c0 -12 5 -21 10 -21 6 0 10 6 10 14 0 8 -4 18 -10 21 -5 3
-10 -3 -10 -14z"/>
<path d="M4031 104 c-21 -15 -28 -55 -15 -88 8 -21 92 -22 100 -2 7 19 -21 78
-45 93 -15 9 -23 8 -40 -3z"/>
<path d="M4382 88 c-9 -12 -16 -47 -13 -75 1 -7 14 -13 31 -13 32 0 41 16 13
23 -10 3 -3 5 15 6 40 1 38 15 -5 48 -24 18 -32 21 -41 11z"/>
<path d="M6245 79 c-4 -12 -2 -26 4 -32 8 -8 11 -2 11 21 0 37 -6 41 -15 11z"/>
<path d="M4675 60 c3 -5 8 -10 11 -10 2 0 4 5 4 10 0 6 -5 10 -11 10 -5 0 -7
-4 -4 -10z"/>
<path d="M1140 20 c0 -17 7 -20 45 -20 25 0 45 5 45 10 0 11 -12 13 -47 10
-13 -1 -23 3 -23 9 0 6 -4 11 -10 11 -5 0 -10 -9 -10 -20z"/>
<path d="M1550 10 c0 -5 5 -10 10 -10 6 0 10 5 10 10 0 6 -4 10 -10 10 -5 0
-10 -4 -10 -10z"/>
</g>
</svg>
